<?xml version="1.0" encoding="UTF-8"?>
<!--Generator: Apple Native CoreSVG 175-->
<!DOCTYPE svg
PUBLIC "-//W3C//DTD SVG 1.1//EN"
       "http://www.w3.org/Graphics/SVG/1.1/DTD/svg11.dtd">
<svg version="1.1" xmlns="http://www.w3.org/2000/svg" xmlns:xlink="http://www.w3.org/1999/xlink" width="3300" height="2200">
 <!--glyph: "", point size: 100.0, font version: "17.0d11e1", template writer version: "65.1"-->
 <g id="Notes">
  <rect height="2200" id="artboard" style="fill:white;opacity:1" width="3300" x="0" y="0"/>
  <line style="fill:none;stroke:black;opacity:1;stroke-width:0.5;" x1="263" x2="3036" y1="292" y2="292"/>
  <text style="stroke:none;fill:black;font-family:sans-serif;font-size:13;font-weight:bold;" transform="matrix(1 0 0 1 263 322)">Weight/Scale Variations</text>
  <text style="stroke:none;fill:black;font-family:sans-serif;font-size:13;text-anchor:middle;" transform="matrix(1 0 0 1 559.711 322)">Ultralight</text>
  <text style="stroke:none;fill:black;font-family:sans-serif;font-size:13;text-anchor:middle;" transform="matrix(1 0 0 1 856.422 322)">Thin</text>
  <text style="stroke:none;fill:black;font-family:sans-serif;font-size:13;text-anchor:middle;" transform="matrix(1 0 0 1 1153.13 322)">Light</text>
  <text style="stroke:none;fill:black;font-family:sans-serif;font-size:13;text-anchor:middle;" transform="matrix(1 0 0 1 1449.84 322)">Regular</text>
  <text style="stroke:none;fill:black;font-family:sans-serif;font-size:13;text-anchor:middle;" transform="matrix(1 0 0 1 1746.56 322)">Medium</text>
  <text style="stroke:none;fill:black;font-family:sans-serif;font-size:13;text-anchor:middle;" transform="matrix(1 0 0 1 2043.27 322)">Semibold</text>
  <text style="stroke:none;fill:black;font-family:sans-serif;font-size:13;text-anchor:middle;" transform="matrix(1 0 0 1 2339.98 322)">Bold</text>
  <text style="stroke:none;fill:black;font-family:sans-serif;font-size:13;text-anchor:middle;" transform="matrix(1 0 0 1 2636.69 322)">Heavy</text>
  <text style="stroke:none;fill:black;font-family:sans-serif;font-size:13;text-anchor:middle;" transform="matrix(1 0 0 1 2933.4 322)">Black</text>
  <line style="fill:none;stroke:black;opacity:1;stroke-width:0.5;" x1="263" x2="3036" y1="1903" y2="1903"/>
  <g transform="matrix(1 0 0 1 263 1933)">
   <path d="M9.24805 0.830078Q10.8691 0.830078 12.2949 0.214844Q13.7207-0.400391 14.8096-1.49414Q15.8984-2.58789 16.5186-4.01367Q17.1387-5.43945 17.1387-7.05078Q17.1387-8.66211 16.5186-10.0879Q15.8984-11.5137 14.8047-12.6074Q13.7109-13.7012 12.2852-14.3164Q10.8594-14.9316 9.23828-14.9316Q7.62695-14.9316 6.20117-14.3164Q4.77539-13.7012 3.69141-12.6074Q2.60742-11.5137 1.9873-10.0879Q1.36719-8.66211 1.36719-7.05078Q1.36719-5.43945 1.9873-4.01367Q2.60742-2.58789 3.69629-1.49414Q4.78516-0.400391 6.21094 0.214844Q7.63672 0.830078 9.24805 0.830078ZM9.24805-0.654297Q7.91992-0.654297 6.7627-1.14746Q5.60547-1.64062 4.73145-2.51953Q3.85742-3.39844 3.36426-4.56055Q2.87109-5.72266 2.87109-7.05078Q2.87109-8.37891 3.35938-9.54102Q3.84766-10.7031 4.72168-11.582Q5.5957-12.4609 6.75293-12.9541Q7.91016-13.4473 9.23828-13.4473Q10.5762-13.4473 11.7334-12.9541Q12.8906-12.4609 13.7695-11.582Q14.6484-10.7031 15.1465-9.54102Q15.6445-8.37891 15.6445-7.05078Q15.6445-5.72266 15.1514-4.56055Q14.6582-3.39844 13.7842-2.51953Q12.9102-1.64062 11.748-1.14746Q10.5859-0.654297 9.24805-0.654297ZM5.6543-7.05078Q5.6543-6.72852 5.85938-6.52832Q6.06445-6.32812 6.40625-6.32812L8.51562-6.32812L8.51562-4.20898Q8.51562-3.88672 8.71094-3.67676Q8.90625-3.4668 9.23828-3.4668Q9.56055-3.4668 9.77051-3.67676Q9.98047-3.88672 9.98047-4.20898L9.98047-6.32812L12.0898-6.32812Q12.4219-6.32812 12.627-6.52832Q12.832-6.72852 12.832-7.05078Q12.832-7.38281 12.627-7.58789Q12.4219-7.79297 12.0898-7.79297L9.98047-7.79297L9.98047-9.90234Q9.98047-10.2344 9.77051-10.4443Q9.56055-10.6543 9.23828-10.6543Q8.90625-10.6543 8.71094-10.4443Q8.51562-10.2344 8.51562-9.90234L8.51562-7.79297L6.40625-7.79297Q6.06445-7.79297 5.85938-7.58789Q5.6543-7.38281 5.6543-7.05078Z"/>
  </g>
  <g transform="matrix(1 0 0 1 281.867 1933)">
   <path d="M11.709 2.91016Q13.75 2.91016 15.5518 2.12891Q17.3535 1.34766 18.7305-0.0292969Q20.1074-1.40625 20.8887-3.20801Q21.6699-5.00977 21.6699-7.05078Q21.6699-9.0918 20.8887-10.8936Q20.1074-12.6953 18.7305-14.0723Q17.3535-15.4492 15.5469-16.2305Q13.7402-17.0117 11.6992-17.0117Q9.6582-17.0117 7.85645-16.2305Q6.05469-15.4492 4.68262-14.0723Q3.31055-12.6953 2.5293-10.8936Q1.74805-9.0918 1.74805-7.05078Q1.74805-5.00977 2.5293-3.20801Q3.31055-1.40625 4.6875-0.0292969Q6.06445 1.34766 7.86621 2.12891Q9.66797 2.91016 11.709 2.91016ZM11.709 1.25Q9.98047 1.25 8.47656 0.605469Q6.97266-0.0390625 5.83496-1.17676Q4.69727-2.31445 4.05762-3.81836Q3.41797-5.32227 3.41797-7.05078Q3.41797-8.7793 4.05762-10.2832Q4.69727-11.7871 5.83008-12.9297Q6.96289-14.0723 8.4668-14.7119Q9.9707-15.3516 11.6992-15.3516Q13.4277-15.3516 14.9316-14.7119Q16.4355-14.0723 17.5781-12.9297Q18.7207-11.7871 19.3652-10.2832Q20.0098-8.7793 20.0098-7.05078Q20.0098-5.32227 19.3701-3.81836Q18.7305-2.31445 17.5928-1.17676Q16.4551-0.0390625 14.9463 0.605469Q13.4375 1.25 11.709 1.25ZM7.17773-7.05078Q7.17773-6.69922 7.41211-6.47461Q7.64648-6.25 8.01758-6.25L10.8887-6.25L10.8887-3.36914Q10.8887-2.99805 11.1133-2.76855Q11.3379-2.53906 11.6895-2.53906Q12.0605-2.53906 12.29-2.76855Q12.5195-2.99805 12.5195-3.36914L12.5195-6.25L15.4004-6.25Q15.7715-6.25 16.001-6.47461Q16.2305-6.69922 16.2305-7.05078Q16.2305-7.42188 16.001-7.65137Q15.7715-7.88086 15.4004-7.88086L12.5195-7.88086L12.5195-10.752Q12.5195-11.1328 12.29-11.3623Q12.0605-11.5918 11.6895-11.5918Q11.3379-11.5918 11.1133-11.3574Q10.8887-11.123 10.8887-10.752L10.8887-7.88086L8.01758-7.88086Q7.63672-7.88086 7.40723-7.65137Q7.17773-7.42188 7.17773-7.05078Z"/>
  </g>
  <g transform="matrix(1 0 0 1 305.646 1933)">
   <path d="M14.9707 5.66406Q17.0605 5.66406 18.96 5.01465Q20.8594 4.36523 22.4512 3.19336Q24.043 2.02148 25.2197 0.429688Q26.3965-1.16211 27.0459-3.06641Q27.6953-4.9707 27.6953-7.05078Q27.6953-9.14062 27.0459-11.04Q26.3965-12.9395 25.2197-14.5312Q24.043-16.123 22.4512-17.2998Q20.8594-18.4766 18.9551-19.126Q17.0508-19.7754 14.9609-19.7754Q12.8711-19.7754 10.9717-19.126Q9.07227-18.4766 7.48535-17.2998Q5.89844-16.123 4.72168-14.5312Q3.54492-12.9395 2.90039-11.04Q2.25586-9.14062 2.25586-7.05078Q2.25586-4.9707 2.90527-3.06641Q3.55469-1.16211 4.72656 0.429688Q5.89844 2.02148 7.49023 3.19336Q9.08203 4.36523 10.9814 5.01465Q12.8809 5.66406 14.9707 5.66406ZM14.9707 3.84766Q13.1641 3.84766 11.5283 3.2959Q9.89258 2.74414 8.53516 1.74805Q7.17773 0.751953 6.17676-0.610352Q5.17578-1.97266 4.62891-3.6084Q4.08203-5.24414 4.08203-7.05078Q4.08203-8.86719 4.62891-10.5029Q5.17578-12.1387 6.17188-13.501Q7.16797-14.8633 8.52539-15.8594Q9.88281-16.8555 11.5186-17.4023Q13.1543-17.9492 14.9609-17.9492Q16.7773-17.9492 18.4131-17.4023Q20.0488-16.8555 21.4111-15.8594Q22.7734-14.8633 23.7695-13.501Q24.7656-12.1387 25.3174-10.5029Q25.8691-8.86719 25.8691-7.05078Q25.8789-5.24414 25.332-3.6084Q24.7852-1.97266 23.7842-0.610352Q22.7832 0.751953 21.4209 1.74805Q20.0586 2.74414 18.4229 3.2959Q16.7871 3.84766 14.9707 3.84766ZM9.19922-7.05078Q9.19922-6.66992 9.45801-6.4209Q9.7168-6.17188 10.1172-6.17188L14.0625-6.17188L14.0625-2.2168Q14.0625-1.81641 14.3115-1.55762Q14.5605-1.29883 14.9512-1.29883Q15.3516-1.29883 15.6104-1.55273Q15.8691-1.80664 15.8691-2.2168L15.8691-6.17188L19.8242-6.17188Q20.2246-6.17188 20.4785-6.4209Q20.7324-6.66992 20.7324-7.05078Q20.7324-7.46094 20.4785-7.71484Q20.2246-7.96875 19.8242-7.96875L15.8691-7.96875L15.8691-11.9141Q15.8691-12.3242 15.6104-12.583Q15.3516-12.8418 14.9512-12.8418Q14.5605-12.8418 14.3115-12.583Q14.0625-12.3242 14.0625-11.9141L14.0625-7.96875L10.1172-7.96875Q9.70703-7.96875 9.45312-7.71484Q9.19922-7.46094 9.19922-7.05078Z"/>
  </g>
  <text style="stroke:none;fill:black;font-family:sans-serif;font-size:13;font-weight:bold;" transform="matrix(1 0 0 1 263 1953)">Design Variations</text>
  <text style="stroke:none;fill:black;font-family:sans-serif;font-size:13;" transform="matrix(1 0 0 1 263 1971)">Symbols are supported in up to nine weights and three scales.</text>
  <text style="stroke:none;fill:black;font-family:sans-serif;font-size:13;" transform="matrix(1 0 0 1 263 1989)">For optimal layout with text and other symbols, vertically align</text>
  <text style="stroke:none;fill:black;font-family:sans-serif;font-size:13;" transform="matrix(1 0 0 1 263 2007)">symbols with the adjacent text.</text>
  <line style="fill:none;stroke:#00AEEF;stroke-width:0.5;opacity:1.0;" x1="776" x2="776" y1="1919" y2="1933"/>
  <g transform="matrix(1 0 0 1 776 1933)">
   <path d="M3.31055 0.15625Q3.70117 0.15625 3.91602-0.00976562Q4.13086-0.175781 4.26758-0.585938L5.52734-4.0332L11.2891-4.0332L12.5488-0.585938Q12.6855-0.175781 12.9004-0.00976562Q13.1152 0.15625 13.4961 0.15625Q13.8867 0.15625 14.1162-0.0585938Q14.3457-0.273438 14.3457-0.644531Q14.3457-0.869141 14.2383-1.17188L9.6582-13.3691Q9.48242-13.8184 9.17969-14.043Q8.87695-14.2676 8.4082-14.2676Q7.5-14.2676 7.17773-13.3789L2.59766-1.16211Q2.49023-0.859375 2.49023-0.634766Q2.49023-0.263672 2.70996-0.0537109Q2.92969 0.15625 3.31055 0.15625ZM6.00586-5.51758L8.37891-12.0898L8.42773-12.0898L10.8008-5.51758Z"/>
  </g>
  <line style="fill:none;stroke:#00AEEF;stroke-width:0.5;opacity:1.0;" x1="793.197" x2="793.197" y1="1919" y2="1933"/>
  <text style="stroke:none;fill:black;font-family:sans-serif;font-size:13;font-weight:bold;" transform="matrix(1 0 0 1 776 1953)">Margins</text>
  <text style="stroke:none;fill:black;font-family:sans-serif;font-size:13;" transform="matrix(1 0 0 1 776 1971)">Leading and trailing margins on the left and right side of each symbol</text>
  <text style="stroke:none;fill:black;font-family:sans-serif;font-size:13;" transform="matrix(1 0 0 1 776 1989)">can be adjusted by modifying the x-location of the margin guidelines.</text>
  <text style="stroke:none;fill:black;font-family:sans-serif;font-size:13;" transform="matrix(1 0 0 1 776 2007)">Modifications are automatically applied proportionally to all</text>
  <text style="stroke:none;fill:black;font-family:sans-serif;font-size:13;" transform="matrix(1 0 0 1 776 2025)">scales and weights.</text>
  <g transform="matrix(1 0 0 1 1289 1933)">
   <path d="M2.8418 1.86523L4.54102 3.57422Q5.18555 4.22852 5.90332 4.17969Q6.62109 4.13086 7.31445 3.35938L18.0078-8.42773L17.041-9.4043L6.42578 2.27539Q6.16211 2.57812 5.89355 2.61719Q5.625 2.65625 5.27344 2.30469L4.10156 1.14258Q3.75 0.791016 3.79395 0.522461Q3.83789 0.253906 4.14062-0.0195312L15.6152-10.8203L14.6387-11.7871L3.04688-0.898438Q2.30469-0.214844 2.25098 0.498047Q2.19727 1.21094 2.8418 1.86523ZM9.25781-16.3281Q8.94531-16.0254 8.90625-15.6348Q8.86719-15.2441 9.04297-14.9512Q9.21875-14.6777 9.55566-14.541Q9.89258-14.4043 10.3809-14.5215Q11.4746-14.7754 12.5977-14.7314Q13.7207-14.6875 14.7949-13.9844L14.209-12.5293Q13.9551-11.9043 14.0674-11.4404Q14.1797-10.9766 14.5801-10.5664L16.875-8.25195Q17.2363-7.88086 17.5781-7.82227Q17.9199-7.76367 18.3398-7.8418L19.4043-8.03711L20.0684-7.36328L20.0293-6.80664Q20-6.43555 20.1221-6.12305Q20.2441-5.81055 20.6055-5.44922L21.3672-4.70703Q21.7285-4.3457 22.1533-4.33105Q22.5781-4.31641 22.9297-4.66797L25.8398-7.58789Q26.1914-7.93945 26.1816-8.35449Q26.1719-8.76953 25.8105-9.13086L25.0391-9.89258Q24.6875-10.2539 24.3799-10.3857Q24.0723-10.5176 23.7109-10.4883L23.1348-10.4395L22.4902-11.0742L22.7344-12.1973Q22.832-12.6172 22.6953-12.9834Q22.5586-13.3496 22.1191-13.7891L19.9219-15.9766Q18.6719-17.2168 17.2607-17.8369Q15.8496-18.457 14.4189-18.4814Q12.9883-18.5059 11.665-17.959Q10.3418-17.4121 9.25781-16.3281ZM10.752-15.957Q11.6602-16.6211 12.7002-16.9043Q13.7402-17.1875 14.8047-17.085Q15.8691-16.9824 16.8701-16.5137Q17.8711-16.0449 18.7012-15.2051L21.1328-12.793Q21.3086-12.6172 21.3525-12.4512Q21.3965-12.2852 21.3379-12.0312L21.0156-10.5469L22.5195-9.0625L23.5059-9.12109Q23.6914-9.13086 23.7891-9.09668Q23.8867-9.0625 24.0332-8.91602L24.6094-8.33984L22.168-5.89844L21.5918-6.47461Q21.4453-6.62109 21.4062-6.71875Q21.3672-6.81641 21.377-7.01172L21.4453-7.98828L19.9512-9.47266L18.4277-9.21875Q18.1836-9.16992 18.042-9.2041Q17.9004-9.23828 17.7148-9.41406L15.7129-11.416Q15.5176-11.5918 15.4932-11.7529Q15.4688-11.9141 15.5859-12.1875L16.4648-14.2773Q15.293-15.3711 13.8281-15.791Q12.3633-16.2109 10.8398-15.7617Q10.7227-15.7324 10.6885-15.8057Q10.6543-15.8789 10.752-15.957Z"/>
  </g>
  <text style="stroke:none;fill:black;font-family:sans-serif;font-size:13;font-weight:bold;" transform="matrix(1 0 0 1 1289 1953)">Exporting</text>
  <text style="stroke:none;fill:black;font-family:sans-serif;font-size:13;" transform="matrix(1 0 0 1 1289 1971)">Symbols should be outlined when exporting to ensure the</text>
  <text style="stroke:none;fill:black;font-family:sans-serif;font-size:13;" transform="matrix(1 0 0 1 1289 1989)">design is preserved when submitting to Xcode.</text>
  <text id="template-version" style="stroke:none;fill:black;font-family:sans-serif;font-size:13;text-anchor:end;" transform="matrix(1 0 0 1 3036 1933)">Template v.3.0</text>
  <text style="stroke:none;fill:black;font-family:sans-serif;font-size:13;text-anchor:end;" transform="matrix(1 0 0 1 3036 1951)">Requires Xcode 13 or greater</text>
  <text id="descriptive-name" style="stroke:none;fill:black;font-family:sans-serif;font-size:13;text-anchor:end;" transform="matrix(1 0 0 1 3036 1969)">Generated from custom.goforward</text>
  <text style="stroke:none;fill:black;font-family:sans-serif;font-size:13;text-anchor:end;" transform="matrix(1 0 0 1 3036 1987)">Typeset at 100 points</text>
  <text style="stroke:none;fill:black;font-family:sans-serif;font-size:13;" transform="matrix(1 0 0 1 263 726)">Small</text>
  <text style="stroke:none;fill:black;font-family:sans-serif;font-size:13;" transform="matrix(1 0 0 1 263 1156)">Medium</text>
  <text style="stroke:none;fill:black;font-family:sans-serif;font-size:13;" transform="matrix(1 0 0 1 263 1586)">Large</text>
 </g>
 <g id="Guides">
  <g id="H-reference" style="fill:#27AAE1;stroke:none;" transform="matrix(1 0 0 1 339 696)">
   <path d="M0.993347 0L3.6377 0L29.3282-67.1326L30.0301-67.1326L30.0301-70.459L28.1227-70.459ZM11.6882-24.4797L46.9818-24.4797L46.2311-26.7288L12.4382-26.7288ZM55.1193 0L57.7637 0L30.6381-70.459L29.4327-70.459L29.4327-67.1326Z"/>
  </g>
  <line id="Baseline-S" style="fill:none;stroke:#27AAE1;opacity:1;stroke-width:0.5;" x1="263" x2="3036" y1="696" y2="696"/>
  <line id="Capline-S" style="fill:none;stroke:#27AAE1;opacity:1;stroke-width:0.5;" x1="263" x2="3036" y1="625.541" y2="625.541"/>
  <g id="H-reference" style="fill:#27AAE1;stroke:none;" transform="matrix(1 0 0 1 339 1126)">
   <path d="M0.993347 0L3.6377 0L29.3282-67.1326L30.0301-67.1326L30.0301-70.459L28.1227-70.459ZM11.6882-24.4797L46.9818-24.4797L46.2311-26.7288L12.4382-26.7288ZM55.1193 0L57.7637 0L30.6381-70.459L29.4327-70.459L29.4327-67.1326Z"/>
  </g>
  <line id="Baseline-M" style="fill:none;stroke:#27AAE1;opacity:1;stroke-width:0.5;" x1="263" x2="3036" y1="1126" y2="1126"/>
  <line id="Capline-M" style="fill:none;stroke:#27AAE1;opacity:1;stroke-width:0.5;" x1="263" x2="3036" y1="1055.54" y2="1055.54"/>
  <g id="H-reference" style="fill:#27AAE1;stroke:none;" transform="matrix(1 0 0 1 339 1556)">
   <path d="M0.993347 0L3.6377 0L29.3282-67.1326L30.0301-67.1326L30.0301-70.459L28.1227-70.459ZM11.6882-24.4797L46.9818-24.4797L46.2311-26.7288L12.4382-26.7288ZM55.1193 0L57.7637 0L30.6381-70.459L29.4327-70.459L29.4327-67.1326Z"/>
  </g>
  <line id="Baseline-L" style="fill:none;stroke:#27AAE1;opacity:1;stroke-width:0.5;" x1="263" x2="3036" y1="1556" y2="1556"/>
  <line id="Capline-L" style="fill:none;stroke:#27AAE1;opacity:1;stroke-width:0.5;" x1="263" x2="3036" y1="1485.54" y2="1485.54"/>
  <line id="left-margin-Regular-M" style="fill:none;stroke:#00AEEF;stroke-width:0.5;opacity:1.0;" x1="1391.32" x2="1391.32" y1="1030.78" y2="1150.12"/>
  <line id="right-margin-Regular-M" style="fill:none;stroke:#00AEEF;stroke-width:0.5;opacity:1.0;" x1="1508.37" x2="1508.37" y1="1030.78" y2="1150.12"/>
 </g>
 <g id="Symbols">
  <g id="Black-L" transform="matrix(1 0 0 1 2854.19 1556)">
   <path d="M11.2588-36.0789Q11.2588-22.06 16.5645-9.77394Q21.8702 2.51198 31.2374 11.8898Q40.6048 21.2675 52.8907 26.5628Q65.1768 31.858 79.1957 31.858Q93.2356 31.858 105.521 26.5628Q117.806 21.2675 127.174 11.8898Q136.542 2.51198 141.848-9.77394Q147.154-22.06 147.154-36.0789Q147.154-44.9697 144.559-54.1387Q141.964-63.3075 137.274-71.3021Q132.585-79.2967 126.378-84.5581Q122.378-88.1385 118.217-88.226Q114.056-88.3136 111.186-85.212Q107.966-81.7576 108.709-77.6114Q109.452-73.4651 112.534-70.0445Q119.312-63.1731 123.138-54.6532Q126.964-46.1332 126.985-36.0789Q126.985-26.1568 123.268-17.4882Q119.551-8.81961 113.013-2.27193Q106.476 4.27579 97.797 7.99315Q89.1179 11.7105 79.1957 11.7105Q69.2944 11.7105 60.6258 7.99315Q51.9572 4.27579 45.4199-2.27193Q38.8827-8.81961 35.1647-17.4882Q31.4468-26.1568 31.4468-36.0789Q31.4468-46.5845 35.5695-55.6446Q39.6922-64.7045 46.9546-71.3442Q54.217-77.984 63.6078-81.1818L63.6078-72.4387Q63.6078-67.9929 66.8996-66.8118Q70.1913-65.6308 74.1526-68.5613L98.9335-86.7106Q102.125-89.0299 102.077-92.3618Q102.029-95.6937 98.9335-97.9535L74.1734-116.162Q70.1913-119.113 66.8996-117.991Q63.6078-116.868 63.6078-112.306L63.6078-102.172Q52.3979-99.5174 42.8333-93.4119Q33.2687-87.3063 26.1837-78.497Q19.0988-69.6877 15.1788-58.886Q11.2588-48.0844 11.2588-36.0789Z"/>
  </g>
  <g id="Heavy-L" transform="matrix(1 0 0 1 2558.42 1556)">
   <path d="M11.2588-36.0101Q11.2588-22.2056 16.4963-10.0881Q21.7339 2.02935 30.9738 11.2844Q40.2138 20.5394 52.3312 25.7619Q64.4487 30.9844 78.2532 30.9844Q92.0878 30.9844 104.203 25.7619Q116.317 20.5394 125.56 11.2844Q134.803 2.02935 140.04-10.0881Q145.278-22.2056 145.278-36.0101Q145.278-45.3217 142.489-54.6157Q139.7-63.9098 134.669-71.925Q129.637-79.9403 122.96-85.3412Q119.452-88.4285 115.774-88.4074Q112.096-88.3864 109.641-85.5888Q106.925-82.5122 107.608-78.8951Q108.292-75.278 111.065-72.346Q118.686-65.3836 123.081-56.1522Q127.476-46.9208 127.506-36.0101Q127.506-25.7731 123.681-16.8425Q119.857-7.91192 113.119-1.15906Q106.382 5.59383 97.436 9.41816Q88.4902 13.2425 78.2532 13.2425Q68.0463 13.2425 59.1158 9.41816Q50.1852 5.59383 43.4474-1.15906Q36.7097-7.91192 32.8825-16.8425Q29.0554-25.7731 29.0554-36.0101Q29.0554-47.0815 33.4928-56.5932Q37.9301-66.1048 45.7148-72.9587Q53.4994-79.8127 63.5245-82.8871L63.5245-73.9849Q63.5245-69.8325 66.479-68.7378Q69.4334-67.6431 73.0395-70.3L96.6895-87.4645Q99.6123-89.588 99.5829-92.5827Q99.5533-95.5774 96.6895-97.6507L73.0698-114.865Q69.4334-117.547 66.479-116.5Q63.5245-115.452 63.5245-111.211L63.5245-101.33Q52.3598-98.7938 42.815-92.7862Q33.2703-86.7786 26.1894-78.0647Q19.1087-69.3507 15.1837-58.6307Q11.2588-47.9107 11.2588-36.0101Z"/>
  </g>
  <g id="Bold-L" transform="matrix(1 0 0 1 2262.89 1556)">
   <path d="M11.2588-35.9164Q11.2588-22.3733 16.4081-10.4671Q21.5574 1.43914 30.636 10.5368Q39.7148 19.6344 51.621 24.7648Q63.5272 29.8951 77.0703 29.8951Q90.6513 29.8951 102.551 24.7648Q114.451 19.6344 123.536 10.5368Q132.621 1.43914 137.771-10.4671Q142.92-22.3733 142.92-35.9164Q142.92-45.7282 139.893-55.1796Q136.866-64.6311 131.415-72.6695Q125.965-80.7079 118.719-86.2408Q115.818-88.7283 112.746-88.5951Q109.675-88.462 107.72-86.0632Q105.604-83.4629 106.207-80.4952Q106.811-77.5276 109.185-75.1876Q117.872-68.11 122.985-58.0025Q128.098-47.895 128.136-35.9164Q128.136-25.2951 124.178-16.038Q120.219-6.78093 113.232 0.225559Q106.244 7.23209 96.9679 11.1908Q87.6917 15.1494 77.0703 15.1494Q66.4869 15.1494 57.2298 11.1908Q47.9727 7.23209 40.9852 0.225559Q33.9978-6.78093 30.0324-16.038Q26.0672-25.2951 26.0672-35.9164Q26.0672-47.6796 30.8926-57.7448Q35.718-67.8098 44.1445-74.9289Q52.5709-82.048 63.3724-84.9761L63.3724-75.7327Q63.3724-71.9863 65.9081-71.0028Q68.4437-70.0194 71.6044-72.3382L93.9303-88.3554Q96.5151-90.2332 96.5051-92.8091Q96.4949-95.3851 93.9303-97.2204L71.6425-113.28Q68.4437-115.624 65.9081-114.676Q63.3724-113.729 63.3724-109.924L63.3724-100.253Q52.269-97.8635 42.7584-91.9788Q33.2479-86.094 26.1785-77.5029Q19.109-68.9117 15.1839-58.299Q11.2588-47.6864 11.2588-35.9164Z"/>
  </g>
  <g id="Semibold-L" transform="matrix(1 0 0 1 1966.99 1556)">
   <path d="M11.2588-35.8519Q11.2588-22.489 16.3472-10.7284Q21.4357 1.03225 30.4031 10.0214Q39.3707 19.0105 51.1314 24.0774Q62.892 29.1442 76.2549 29.1442Q89.661 29.1442 101.413 24.0774Q113.164 19.0105 122.141 10.0214Q131.117 1.03225 136.206-10.7284Q141.295-22.489 141.295-35.8519Q141.295-46.0084 138.103-55.5684Q134.912-65.1284 129.172-73.1827Q123.433-81.237 115.795-86.8609Q113.312-88.935 110.659-88.7245Q108.006-88.5141 106.396-86.3902Q104.694-84.1182 105.241-81.5983Q105.789-79.0784 107.888-77.1466Q117.312-69.9896 122.92-59.2781Q128.528-48.5666 128.571-35.8519Q128.571-24.9656 124.52-15.4834Q120.468-6.00123 113.309 1.18011Q106.149 8.36149 96.6452 12.4128Q87.1413 16.4641 76.2549 16.4641Q65.4118 16.4641 55.9296 12.4128Q46.4474 8.36149 39.2878 1.18011Q32.1282-6.00123 28.0676-15.4834Q24.0071-24.9656 24.0071-35.8519Q24.0071-48.092 29.1-58.5387Q34.193-68.9853 43.062-76.2872Q51.9308-83.589 63.2676-86.4163L63.2676-76.9377Q63.2676-73.471 65.5145-72.5643Q67.7614-71.6576 70.615-73.7432L92.0282-88.9696Q94.38-90.678 94.3832-92.9652Q94.3864-95.2525 92.0282-96.9237L70.6585-112.187Q67.7614-114.298 65.5145-113.419Q63.2676-112.54 63.2676-109.036L63.2676-99.5114Q52.2064-97.2221 42.7194-91.4221Q33.2325-85.622 26.1709-77.1156Q19.1093-68.6091 15.1841-58.0704Q11.2588-47.5317 11.2588-35.8519Z"/>
  </g>
  <g id="Medium-L" transform="matrix(1 0 0 1 1670.89 1556)">
   <path d="M11.2588-35.8029Q11.2588-22.5767 16.3011-10.9265Q21.3434 0.723736 30.2266 9.63064Q39.1099 18.5375 50.7601 23.5562Q62.4103 28.5749 75.6366 28.5749Q88.9102 28.5749 100.549 23.5562Q112.188 18.5375 121.083 9.63064Q129.977 0.723736 135.02-10.9265Q140.062-22.5767 140.062-35.8029Q140.062-46.2209 136.746-55.8631Q133.43-65.5054 127.472-73.5719Q121.513-81.6383 113.578-87.3311Q111.413-89.0917 109.077-88.8226Q106.741-88.5537 105.392-86.6382Q104.003-84.6152 104.509-82.4348Q105.015-80.2543 106.905-78.6321Q116.886-71.4148 122.87-60.2453Q128.853-49.0759 128.901-35.8029Q128.901-24.7157 124.779-15.0629Q120.657-5.41002 113.367 1.90389Q106.077 9.21785 96.4005 13.3394Q86.7239 17.4609 75.6366 17.4609Q64.5966 17.4609 54.9438 13.3394Q45.2909 9.21785 38.0008 1.90389Q30.7107-5.41002 26.5778-15.0629Q22.445-24.7157 22.445-35.8029Q22.445-48.4047 27.7408-59.1406Q33.0367-69.8766 42.2411-77.317Q51.4455-84.7574 63.1881-87.5083L63.1881-77.8513Q63.1881-74.5969 65.216-73.7483Q67.244-72.8998 69.8648-74.8086L90.5859-89.4354Q92.761-91.0153 92.7744-93.0836Q92.7877-95.152 90.5859-96.6988L69.9124-111.359Q67.244-113.293 65.216-112.466Q63.1881-111.639 63.1881-108.364L63.1881-98.9487Q52.1589-96.7358 42.6898-91Q33.2209-85.2642 26.1652-76.8219Q19.1095-68.3796 15.1842-57.897Q11.2588-47.4145 11.2588-35.8029Z"/>
  </g>
  <g id="Regular-L" transform="matrix(1 0 0 1 1374.99 1556)">
   <path d="M11.2588-35.7391Q11.2588-22.691 16.2409-11.1849Q21.2231 0.321321 29.9963 9.12092Q38.7696 17.9205 50.2759 22.8763Q61.782 27.8322 74.8301 27.8322Q87.9307 27.8322 99.4232 22.8763Q110.916 17.9205 119.703 9.12092Q128.49 0.321321 133.472-11.1849Q138.454-22.691 138.454-35.7391Q138.454-46.4981 134.976-56.2476Q131.498-65.9972 125.254-74.0794Q119.01-82.1616 110.686-87.9445Q108.935-89.2961 107.012-88.9506Q105.09-88.6052 104.083-86.9617Q103.103-85.2633 103.554-83.5257Q104.005-81.7881 105.623-80.5695Q116.332-73.2737 122.805-61.5068Q129.278-49.7401 129.33-35.7391Q129.33-24.3899 125.117-14.5144Q120.904-4.63889 113.444 2.84795Q105.983 10.3348 96.0814 14.548Q86.1794 18.7611 74.8301 18.7611Q63.5334 18.7611 53.6579 14.548Q43.7824 10.3348 36.322 2.84795Q28.8617-4.63889 24.6346-14.5144Q20.4076-24.3899 20.4076-35.7391Q20.4076-48.8125 25.968-59.9258Q31.5284-71.0391 41.1705-78.6603Q50.8124-86.2814 63.0844-88.9326L63.0844-79.043Q63.0844-76.0653 64.8268-75.2927Q66.5692-74.52 68.8863-76.1983L88.7047-90.0428Q90.6493-91.4551 90.6759-93.238Q90.7024-95.0209 88.7047-96.4054L68.9393-110.278Q66.5692-111.982 64.8268-111.223Q63.0844-110.464 63.0844-107.486L63.0844-98.2148Q52.097-96.1014 42.6512-90.4495Q33.2056-84.7974 26.1577-76.4389Q19.1097-68.0802 15.1843-57.6709Q11.2588-47.2615 11.2588-35.7391Z"/>
  </g>
  <g id="Light-L" transform="matrix(1 0 0 1 1079.2 1556)">
   <path d="M11.2588-35.6208Q11.2588-22.7253 16.155-11.3815Q21.0512-0.0374791 29.6908 8.61892Q38.3307 17.2753 49.6746 22.1549Q61.0185 27.0344 73.914 27.0344Q86.8427 27.0344 98.1635 22.1549Q109.484 17.2753 118.147 8.61892Q126.81-0.0374791 131.707-11.3815Q136.603-22.7253 136.603-35.6208Q136.603-46.5898 132.972-56.4633Q129.341-66.3368 122.839-74.419Q116.338-82.5012 107.709-88.1125Q106.358-89.1203 104.913-88.8417Q103.468-88.5632 102.709-87.3394Q101.996-86.023 102.342-84.6957Q102.688-83.3683 103.925-82.4743Q115.53-75.0828 122.585-62.7434Q129.64-50.4042 129.674-35.6208Q129.674-24.0426 125.356-13.9285Q121.038-3.81449 113.396 3.84425Q105.754 11.503 95.6233 15.821Q85.4923 20.139 73.914 20.139Q62.3691 20.139 52.255 15.821Q42.141 11.503 34.4993 3.84425Q26.8576-3.81449 22.516-13.9285Q18.1745-24.0426 18.1745-35.6208Q18.1745-49.1139 23.9926-60.5708Q29.8106-72.0277 39.8632-79.8303Q49.9156-87.6327 62.6646-90.2265L62.6646-79.1729Q62.6646-76.7487 64.1111-76.081Q65.5575-75.4133 67.5312-76.8623L86.9299-90.3824Q88.6071-91.6039 88.6242-93.091Q88.6412-94.5781 86.9299-95.7525L67.5653-109.32Q65.5575-110.756 64.1111-110.112Q62.6646-109.467 62.6646-107.043L62.6646-97.2567Q51.7536-95.2389 42.3936-89.6824Q33.0338-84.1257 26.0336-75.8816Q19.0334-67.6374 15.1461-57.3426Q11.2588-47.0476 11.2588-35.6208Z"/>
  </g>
  <g id="Thin-L" transform="matrix(1 0 0 1 783.716 1556)">
   <path d="M11.2588-35.4643Q11.2588-22.7707 16.0413-11.6414Q20.8239-0.512021 29.2869 7.95498Q37.75 16.422 48.8795 21.2006Q60.0087 25.9792 72.7023 25.9792Q85.4038 25.9792 96.4975 21.2006Q107.591 16.422 116.09 7.95498Q124.589-0.512021 129.372-11.6414Q134.155-22.7707 134.155-35.4643Q134.155-46.7111 130.322-56.7485Q126.489-66.7858 119.646-74.8682Q112.804-82.9503 103.771-88.3347Q102.951-88.8879 102.137-88.6978Q101.323-88.5076 100.892-87.8389Q100.532-87.0276 100.739-86.243Q100.946-85.4583 101.678-84.9934Q114.47-77.4755 122.295-64.3789Q130.12-51.2825 130.128-35.4643Q130.128-23.5833 125.671-13.1538Q121.215-2.72415 113.333 5.16194Q105.452 13.0479 95.0176 17.5046Q84.5834 21.9613 72.7023 21.9613Q60.8292 21.9613 50.3996 17.5046Q39.9701 13.0479 32.0885 5.16194Q24.207-2.72415 19.714-13.1538Q15.2211-23.5833 15.2211-35.4643Q15.2211-49.5126 21.38-61.4239Q27.5387-73.3352 38.1342-81.3776Q48.7294-89.4199 62.1095-91.9377L62.1095-79.3447Q62.1095-77.6524 63.1646-77.1236Q64.2195-76.5948 65.739-77.7406L84.5826-90.8315Q85.9061-91.8007 85.9106-92.8966Q85.9151-93.9924 84.5826-94.8891L65.748-108.052Q64.2195-109.136 63.1646-108.643Q62.1095-108.15 62.1095-106.458L62.1095-95.9895Q51.2994-94.0981 42.0529-88.6677Q32.8065-83.2372 25.8696-75.1445Q18.9325-67.0517 15.0957-56.9083Q11.2588-46.7648 11.2588-35.4643Z"/>
  </g>
  <g id="Ultralight-L" transform="matrix(1 0 0 1 487.632 1556)">
   <path d="M11.2588-35.3842Q11.2588-22.7939 15.9831-11.7746Q20.7075-0.75508 29.08 7.61492Q37.4527 15.985 48.4722 20.7119Q59.4915 25.4388 72.0818 25.4388Q84.6667 25.4388 95.6442 20.7119Q106.622 15.985 115.036 7.61492Q123.451-0.75508 128.176-11.7746Q132.901-22.7939 132.901-35.3842Q132.901-46.7732 128.964-56.8946Q125.028-67.0159 118.011-75.0982Q110.994-83.1804 101.754-88.4486Q101.205-88.7689 100.714-88.624Q100.224-88.4791 99.9608-88.0948Q99.7821-87.5422 99.9179-87.0355Q100.054-86.5287 100.527-86.2837Q113.927-78.7011 122.146-65.2167Q130.366-51.7324 130.361-35.3842Q130.361-23.348 125.833-12.7569Q121.305-2.16569 113.301 5.83685Q105.296 13.8392 94.7073 18.3669Q84.1179 22.8947 72.0818 22.8947Q60.0405 22.8947 49.4492 18.3669Q38.8582 13.8392 30.8538 5.83685Q22.8493-2.16569 18.2788-12.7569Q13.7084-23.348 13.7084-35.3842Q13.7084-49.7168 20.0418-61.8609Q26.3751-74.0049 37.2486-82.1701Q48.1219-90.3353 61.8251-92.8142L61.8251-79.4327Q61.8251-78.1154 62.6798-77.6577Q63.5342-77.2 64.821-78.1904L83.3803-91.0616Q84.5226-91.9015 84.5207-92.7971Q84.5188-93.6924 83.3803-94.4468L64.8172-107.403Q63.5342-108.306 62.6798-107.89Q61.8251-107.475 61.8251-106.158L61.8251-95.3405Q51.0667-93.5138 41.8783-88.148Q32.6901-82.7822 25.7855-74.767Q18.8807-66.7518 15.0698-56.6859Q11.2588-46.6199 11.2588-35.3842Z"/>
  </g>
  <g id="Black-M" transform="matrix(1 0 0 1 2871.35 1126)">
   <path d="M8.72266-35.9309Q8.72266-24.9061 12.8801-15.2648Q17.0376-5.62354 24.3862 1.7279Q31.7349 9.07927 41.3761 13.234Q51.0174 17.3887 62.0422 17.3887Q73.0725 17.3887 82.714 13.234Q92.3554 9.07927 99.7039 1.7279Q107.052-5.62354 111.21-15.2648Q115.367-24.9061 115.367-35.9309Q115.367-42.4858 113.503-49.4986Q111.638-56.5113 108.264-62.6873Q104.89-68.8632 100.445-72.7963Q96.9764-75.9474 93.4028-76.1175Q89.8292-76.2878 87.2818-73.6806Q84.3916-70.7313 85.0032-67.1199Q85.6148-63.5084 88.2162-60.4823Q92.8661-55.2241 95.4203-49.1572Q97.9745-43.0903 97.98-35.9309Q97.98-28.4834 95.1777-21.9603Q92.3755-15.4372 87.4585-10.5174Q82.5415-5.59771 76.0157-2.79544Q69.4897 0.00681578 62.0422 0.00681578Q54.6002 0.00681578 48.0771-2.79544Q41.554-5.59771 36.637-10.5174Q31.72-15.4372 28.9179-21.9603Q26.1158-28.4834 26.1158-35.9309Q26.1158-43.6406 29.0744-50.3182Q32.0329-56.9956 37.2661-61.9801Q42.4993-66.9647 49.2944-69.5406L49.2944-62.746Q49.2944-59.1243 52.0945-58.1493Q54.8945-57.1744 58.2221-59.6489L78.336-74.5123Q81.0032-76.4516 80.9489-79.2827Q80.8945-82.1138 78.336-83.9963L58.2276-98.9166Q54.8945-101.397 52.0945-100.479Q49.2944-99.5608 49.2944-95.8249L49.2944-87.6867Q40.5811-85.5411 33.1656-80.7397Q25.75-75.9383 20.2638-69.0468Q14.7778-62.1554 11.7502-53.7322Q8.72266-45.3091 8.72266-35.9309Z"/>
  </g>
  <g id="Heavy-M" transform="matrix(1 0 0 1 2575.47 1126)">
   <path d="M8.72266-35.8745Q8.72266-25.0453 12.8214-15.5537Q16.9202-6.06224 24.1566 1.18243Q31.3931 8.42704 40.8846 12.5176Q50.3762 16.6082 61.2053 16.6082Q72.0509 16.6082 81.5413 12.5176Q91.0318 8.42704 98.2693 1.18243Q105.507-6.06224 109.606-15.5537Q113.704-25.0453 113.704-35.8745Q113.704-42.8213 111.665-49.945Q109.625-57.0687 105.94-63.2649Q102.255-69.4611 97.3781-73.5463Q94.354-76.2471 91.2081-76.3049Q88.0623-76.3629 85.8985-74.014Q83.4752-71.3989 84.0391-68.2669Q84.6029-65.1348 86.9376-62.5565Q92.3275-57.2181 95.3842-50.5085Q98.4408-43.7989 98.4572-35.8745Q98.4572-28.1403 95.56-21.3831Q92.6629-14.6259 87.5666-9.52145Q82.4704-4.41699 75.705-1.51983Q68.9395 1.37732 61.2053 1.37732Q53.4875 1.37732 46.7303-1.51983Q39.9731-4.41699 34.8769-9.52145Q29.7807-14.6259 26.8823-21.3831Q23.9841-28.1403 23.9841-35.8745Q23.9841-44.0986 27.2264-51.186Q30.4688-58.2733 36.1747-63.4505Q41.8806-68.6278 49.2517-71.0882L49.2517-64.2455Q49.2517-60.8597 51.7493-59.9593Q54.2469-59.0591 57.259-61.2873L76.3061-75.2179Q78.7353-76.9834 78.7-79.5122Q78.6645-82.0409 76.3061-83.7605L57.2755-97.737Q54.2469-99.9795 51.7493-99.1239Q49.2517-98.2684 49.2517-94.7953L49.2517-86.9519Q40.5755-84.9134 33.1715-80.1989Q25.7674-75.4843 20.2809-68.6756Q14.7945-61.8669 11.7586-53.5129Q8.72266-45.159 8.72266-35.8745Z"/>
  </g>
  <g id="Bold-M" transform="matrix(1 0 0 1 2279.69 1126)">
   <path d="M8.72266-35.8114Q8.72266-25.201 12.7558-15.877Q16.7889-6.55299 23.8998 0.572242Q31.0107 7.69742 40.3348 11.7163Q49.6588 15.7351 60.2691 15.7351Q70.9081 15.7351 80.2296 11.7163Q89.5511 7.69742 96.6645 0.572242Q103.778-6.55299 107.811-15.877Q111.844-25.201 111.844-35.8114Q111.844-43.1967 109.608-50.4445Q107.372-57.6922 103.34-63.911Q99.3074-70.1298 93.9473-74.3853Q91.4205-76.5824 88.7531-76.5146Q86.0857-76.4469 84.3511-74.387Q82.4502-72.1457 82.9606-69.55Q83.471-66.9542 85.5074-64.8767Q91.7251-59.4486 95.3437-52.0201Q98.9624-44.5917 98.991-35.8114Q98.991-27.7565 95.9876-20.7374Q92.9844-13.7184 87.6876-8.4073Q82.3909-3.09619 75.3575-0.0928772Q68.3241 2.91043 60.2691 2.91043Q52.2428 2.91043 45.2238-0.0928772Q38.2047-3.09619 32.908-8.4073Q27.6112-13.7184 24.6053-20.7374Q21.5995-27.7565 21.5995-35.8114Q21.5995-44.6109 25.1593-52.1567Q28.7191-59.7026 34.9538-65.0954Q41.1885-70.4882 49.2038-72.8194L49.2038-65.9229Q49.2038-62.8009 51.3632-61.9841Q53.5225-61.1675 56.1817-63.1201L74.0353-76.0073Q76.1984-77.5784 76.1842-79.7688Q76.17-81.9593 74.0353-83.4967L56.2104-96.4176Q53.5225-98.3939 51.3632-97.6082Q49.2038-96.8226 49.2038-93.6435L49.2038-86.1298Q40.5692-84.2111 33.178-79.5939Q25.7869-74.9765 20.3-68.2603Q14.8132-61.5441 11.7679-53.2676Q8.72266-44.9912 8.72266-35.8114Z"/>
  </g>
  <g id="Semibold-M" transform="matrix(1 0 0 1 1983.62 1126)">
   <path d="M8.72266-35.7679Q8.72266-25.3084 12.7105-16.0998Q16.6985-6.89131 23.7227 0.151582Q30.7472 7.19442 39.9557 11.1638Q49.1643 15.1332 59.6237 15.1332Q70.1202 15.1332 79.3253 11.1638Q88.5303 7.19442 95.5582 0.151582Q102.586-6.89131 106.574-16.0998Q110.562-25.3084 110.562-35.7679Q110.562-43.4555 108.191-50.7888Q105.819-58.1221 101.547-64.3565Q97.2752-70.5908 91.5822-74.9637Q89.3981-76.8135 87.0606-76.6591Q84.7231-76.5048 83.2843-74.6442Q81.7435-72.6605 82.2171-70.4345Q82.6906-68.2085 84.5213-66.4762Q91.3097-60.9863 95.3159-53.0622Q99.322-45.1382 99.359-35.7679Q99.359-27.4919 96.2825-20.2923Q93.206-13.0927 87.771-7.6392Q82.336-2.18564 75.1179 0.890854Q67.8998 3.96734 59.6237 3.96734Q51.3847 3.96734 44.1852 0.890854Q36.9856-2.18564 31.5506-7.6392Q26.1156-13.0927 23.0355-20.2923Q19.9555-27.4919 19.9555-35.7679Q19.9555-44.9641 23.7342-52.826Q27.5128-60.6879 34.1121-66.2293Q40.7113-71.7707 49.1709-74.013L49.1709-67.0792Q49.1709-64.1391 51.097-63.38Q53.0231-62.6209 55.439-64.3837L72.4699-76.5515Q74.4494-77.9885 74.4499-79.9458Q74.4503-81.9031 72.4699-83.3149L55.4761-95.508Q53.0231-97.3008 51.097-96.5633Q49.1709-95.8259 49.1709-92.8495L49.1709-85.5631Q40.5649-83.727 33.1826-79.1768Q25.8003-74.6264 20.3132-67.974Q14.8261-61.3216 11.7744-53.0985Q8.72266-44.8754 8.72266-35.7679Z"/>
  </g>
  <g id="Medium-M" transform="matrix(1 0 0 1 1687.4 1126)">
   <path d="M8.72266-35.7349Q8.72266-25.3898 12.6762-16.2688Q16.6298-7.14784 23.5885-0.167379Q30.5473 6.81303 39.6683 10.7449Q48.7893 14.6768 59.1343 14.6768Q69.5228 14.6768 78.6396 10.7449Q87.7563 6.81303 94.7193-0.167379Q101.682-7.14784 105.636-16.2688Q109.59-25.3898 109.59-35.7349Q109.59-43.6517 107.116-51.0498Q104.642-58.448 100.188-64.6942Q95.7343-70.9404 89.7889-75.4023Q87.8646-76.9888 85.7773-76.7687Q83.6899-76.5487 82.4754-74.8391Q81.2077-73.0509 81.6533-71.1052Q82.0989-69.1596 83.7737-67.6891Q90.9948-62.1523 95.2947-53.8524Q99.5946-45.5526 99.6381-35.7349Q99.6381-27.2913 96.506-19.9548Q93.3741-12.6183 87.8343-7.0568Q82.2945-1.49522 74.9362 1.63676Q67.578 4.76874 59.1343 4.76874Q50.7341 4.76874 43.3977 1.63676Q36.0612-1.49522 30.5214-7.0568Q24.9816-12.6183 21.8453-19.9548Q18.709-27.2913 18.709-35.7349Q18.709-45.2319 22.6536-53.3334Q26.5982-61.435 33.4739-67.0891Q40.3495-72.7432 49.1459-74.9179L49.1459-67.9561Q49.1459-65.1539 50.8951-64.4384Q52.6444-63.723 54.8759-65.3418L71.2829-76.9641Q73.1233-78.2995 73.1349-80.08Q73.1463-81.8605 71.2829-83.177L54.9193-94.8182Q52.6444-96.4719 50.8951-95.771Q49.1459-95.0702 49.1459-92.2474L49.1459-85.1334Q40.5617-83.36 33.186-78.8605Q25.8105-74.361 20.3232-67.757Q14.8359-61.1529 11.7793-52.9703Q8.72266-44.7877 8.72266-35.7349Z"/>
  </g>
  <g id="Regular-M" transform="matrix(1 0 0 1 1391.32 1126)">
   <path d="M8.72266-35.6918Q8.72266-25.496 12.6315-16.4892Q16.5403-7.48244 23.4134-0.583416Q30.2866 6.31556 39.2934 10.1986Q48.3002 14.0816 58.496 14.0816Q68.7436 14.0816 77.7452 10.1986Q86.7467 6.31556 93.6252-0.583416Q100.504-7.48244 104.412-16.4892Q108.321-25.496 108.321-35.6918Q108.321-43.9076 105.714-51.3903Q103.106-58.8732 98.415-65.1348Q93.7244-71.3964 87.4497-75.9744Q85.8645-77.2174 84.1034-76.9116Q82.3423-76.606 81.4203-75.0935Q80.5088-73.5601 80.918-71.9801Q81.3272-70.4001 82.7985-69.271Q90.584-63.6731 95.2672-54.8831Q99.9503-46.0931 100.002-35.6918Q100.002-27.0296 96.7976-19.5145Q93.5933-11.9996 87.9167-6.29715Q82.2402-0.594672 74.6993 2.60968Q67.1584 5.81404 58.496 5.81404Q49.8854 5.81404 42.3705 2.60968Q34.8554-0.594672 29.1789-6.29715Q23.5024-11.9996 20.2927-19.5145Q17.0831-27.0296 17.0831-35.6918Q17.0831-45.5812 21.2442-53.9953Q25.4052-62.4095 32.6415-68.2106Q39.8776-74.0117 49.1133-76.0983L49.1133-69.0998Q49.1133-66.4774 50.6318-65.819Q52.1505-65.1606 54.1413-66.5914L69.7346-77.5023Q71.3936-78.7052 71.4196-80.255Q71.4455-81.8048 69.7346-82.9971L54.1931-93.9186Q52.1505-95.3908 50.6318-94.7376Q49.1133-94.0844 49.1133-91.4621L49.1133-84.5729Q40.5574-82.8812 33.1905-78.448Q25.8237-74.0147 20.3362-67.4738Q14.8486-60.9328 11.7856-52.803Q8.72266-44.6732 8.72266-35.6918Z"/>
  </g>
  <g id="Light-M" transform="matrix(1 0 0 1 1095.44 1126)">
   <path d="M8.72266-35.5858Q8.72266-25.5267 12.5545-16.6655Q16.3863-7.80412 23.1396-1.03349Q29.893 5.73713 38.7544 9.55171Q47.6157 13.3663 57.6747 13.3663Q67.7682 13.3663 76.6158 9.55171Q85.4634 5.73713 92.2305-1.03349Q98.9976-7.80412 102.83-16.6655Q106.662-25.5267 106.662-35.5858Q106.662-43.9898 103.917-51.5837Q101.172-59.1776 96.2504-65.4392Q91.3288-71.7008 84.7804-76.125Q83.5546-77.0598 82.2212-76.814Q80.8879-76.5683 80.1884-75.4321Q79.5164-74.2411 79.8314-73.0289Q80.1465-71.8168 81.2757-70.9787Q89.8652-65.2951 95.0704-55.9917Q100.275-46.6885 100.31-35.5858Q100.31-26.7182 97.0115-18.9893Q93.7132-11.2604 87.8741-5.40392Q82.0349 0.45262 74.2886 3.75098Q66.5423 7.04934 57.6747 7.04934Q48.8416 7.04934 41.1127 3.75098Q33.3838 0.45262 27.5447-5.40392Q21.7056-11.2604 18.3933-18.9893Q15.081-26.7182 15.081-35.5858Q15.081-45.8514 19.4731-54.5736Q23.8652-63.2958 31.4694-69.2595Q39.0735-75.2232 48.737-77.2584L48.737-69.2162Q48.737-67.0901 49.9902-66.5258Q51.2435-65.9615 52.9264-67.1868L68.1434-77.8067Q69.5626-78.8386 69.5801-80.1232Q69.5975-81.4078 68.1434-82.4118L52.9613-93.0596Q51.2435-94.2924 49.9902-93.7418Q48.737-93.1912 48.737-91.0651L48.737-83.7139Q40.2495-82.1079 32.9595-77.7602Q25.6697-73.4125 20.2249-66.9742Q14.7802-60.5358 11.7514-52.5087Q8.72266-44.4815 8.72266-35.5858Z"/>
  </g>
  <g id="Thin-M" transform="matrix(1 0 0 1 799.828 1126)">
   <path d="M8.72266-35.4455Q8.72266-25.5674 12.4526-16.8985Q16.1825-8.22957 22.7774-1.62874Q29.3725 4.97211 38.0415 8.69619Q46.7103 12.4203 56.5884 12.4203Q66.4781 12.4203 75.1221 8.69619Q83.7662 4.97211 90.3861-1.62874Q97.006-8.22957 100.736-16.8985Q104.467-25.5674 104.467-35.4455Q104.467-44.0986 101.541-51.8394Q98.6148-59.5802 93.3876-65.8419Q88.1604-72.1035 81.2501-76.3242Q80.4995-76.8515 79.7319-76.6849Q78.9644-76.5184 78.5592-75.88Q78.2039-75.1418 78.3944-74.4162Q78.5849-73.6905 79.2617-73.2373Q88.9147-67.4403 94.8101-57.4581Q100.705-47.476 100.717-35.4455Q100.717-26.3064 97.2944-18.2947Q93.8717-10.2829 87.8176-4.22255Q81.7634 1.83775 73.7455 5.26044Q65.7275 8.68314 56.5884 8.68314Q47.461 8.68314 39.4492 5.26044Q31.4375 1.83775 25.3834-4.22255Q19.3292-10.2829 15.8812-18.2947Q12.4332-26.3064 12.4332-35.4455Q12.4332-46.2088 17.1308-55.3385Q21.8283-64.4681 29.9192-70.6468Q38.0101-76.8254 48.2393-78.7926L48.2393-69.3703Q48.2393-67.9004 49.1416-67.4606Q50.0438-67.0207 51.3196-67.9742L66.0389-78.2094Q67.141-79.015 67.1473-79.9489Q67.1535-80.8827 66.0389-81.6377L51.332-91.9236Q50.0438-92.8396 49.1416-92.4247Q48.2393-92.0099 48.2393-90.54L48.2393-82.5779Q39.8423-81.0851 32.654-76.8506Q25.4659-72.6159 20.0778-66.3133Q14.6897-60.0107 11.7062-52.1193Q8.72266-44.2278 8.72266-35.4455Z"/>
  </g>
  <g id="Ultralight-M" transform="matrix(1 0 0 1 503.679 1126)">
   <path d="M8.72266-35.3736Q8.72266-25.5882 12.4004-17.0179Q16.0781-8.44749 22.5919-1.93363Q29.1059 4.58027 37.6763 8.258Q46.2466 11.9357 56.032 11.9357Q65.8173 11.9357 74.357 8.258Q82.8968 4.58027 89.4413-1.93363Q95.9859-8.44749 99.6642-17.0179Q103.342-25.5882 103.342-35.3736Q103.342-44.1543 100.324-51.9704Q97.3049-59.7864 91.9212-66.0482Q86.5375-72.3097 79.4418-76.4263Q78.9347-76.7447 78.4569-76.6188Q77.9791-76.4929 77.7247-76.1094Q77.5316-75.6032 77.6584-75.1267Q77.7851-74.6503 78.2301-74.3941Q88.4278-68.5391 94.6767-58.2091Q100.926-47.8793 100.926-35.3736Q100.926-26.0955 97.4393-17.9389Q93.953-9.78222 87.7887-3.61745Q81.6244 2.54721 73.4673 6.03358Q65.3101 9.51996 56.032 9.51996Q46.7539 9.51996 38.5972 6.03358Q30.4406 2.54721 24.2763-3.61745Q18.112-9.78222 14.5944-17.9389Q11.0769-26.0955 11.0769-35.3736Q11.0769-46.3919 15.931-55.7302Q20.785-65.0685 29.1253-71.3573Q37.4654-77.6461 47.9843-79.5784L47.9843-69.4492Q47.9843-68.3154 48.7069-67.9393Q49.4294-67.5633 50.4966-68.3775L64.961-78.4157Q65.9007-79.1054 65.9012-79.8597Q65.9016-80.6138 64.961-81.2412L50.4975-91.3417Q49.4294-92.0955 48.7069-91.7501Q47.9843-91.4049 47.9843-90.2711L47.9843-81.996Q39.6337-80.5612 32.4976-76.3846Q25.3615-72.208 20.0025-65.9749Q14.6433-59.7418 11.683-51.9199Q8.72266-44.0979 8.72266-35.3736Z"/>
  </g>
  <g id="Black-S" transform="matrix(1 0 0 1 2884.57 696)">
   <path d="M6.83594-35.7902Q6.83594-27.0988 10.1074-19.506Q13.3789-11.9133 19.165-6.1271Q24.9512-0.340971 32.5439 2.93052Q40.1367 6.202 48.8281 6.202Q57.5195 6.202 65.1123 2.93052Q72.7051-0.340971 78.4912-6.1271Q84.2773-11.9133 87.5488-19.506Q90.8203-27.0988 90.8203-35.7902Q90.8203-40.8195 89.4043-46.2883Q87.9883-51.757 85.4248-56.591Q82.8613-61.425 79.4922-64.4523Q76.6602-67.0402 73.7549-67.2111Q70.8496-67.382 68.75-65.2824Q66.3574-62.8898 66.8457-59.9357Q67.334-56.9816 69.4336-54.4914Q72.9004-50.3898 74.7803-45.8Q76.6602-41.2101 76.6602-35.7902Q76.6602-30.0285 74.4873-24.9748Q72.3145-19.9211 68.5059-16.1125Q64.6973-12.3039 59.6436-10.131Q54.5898-7.95816 48.8281-7.95816Q43.0664-7.95816 38.0127-10.131Q32.959-12.3039 29.1504-16.1125Q25.3418-19.9211 23.1689-24.9748Q20.9961-30.0285 20.9961-35.7902Q20.9961-41.6984 23.2422-46.8254Q25.4883-51.9523 29.4678-55.8097Q33.4473-59.6672 38.623-61.7179L38.623-56.3468Q38.623-53.466 40.8936-52.6847Q43.1641-51.9035 45.8496-53.9054L61.9141-65.8195Q64.0625-67.382 64.0137-69.6769Q63.9648-71.9718 61.9141-73.4855L45.8496-85.4484Q43.1641-87.4504 40.8936-86.7179Q38.623-85.9855 38.623-83.007L38.623-76.5129Q31.7871-74.8039 25.9766-71.0197Q20.166-67.2355 15.8691-61.8156Q11.5723-56.3957 9.2041-49.7795Q6.83594-43.1633 6.83594-35.7902Z"/>
  </g>
  <g id="Heavy-S" transform="matrix(1 0 0 1 2588.46 696)">
   <path d="M6.83594-35.7555Q6.83594-27.2139 10.0671-19.7306Q13.2982-12.2474 19.0037-6.5361Q24.7092-0.824882 32.1924 2.40051Q39.6757 5.62589 48.2173 5.62589Q56.7704 5.62589 64.2537 2.40051Q71.737-0.824882 77.4425-6.5361Q83.1479-12.2474 86.3791-19.7306Q89.6102-27.2139 89.6102-35.7555Q89.6102-41.096 88.0617-46.6454Q86.5132-52.1948 83.7134-57.0461Q80.9137-61.8974 77.2103-65.0745Q74.7126-67.3167 72.1184-67.3838Q69.5243-67.451 67.7243-65.5243Q65.7005-63.3737 66.16-60.7826Q66.6195-58.1916 68.5347-56.0471Q72.5316-51.8879 74.7745-46.814Q77.0174-41.7401 77.029-35.7555Q77.029-29.7748 74.7869-24.5483Q72.545-19.3217 68.6038-15.3748Q64.6627-11.4279 59.4304-9.18589Q54.198-6.94389 48.2173-6.94389Q42.2482-6.94389 37.0216-9.18589Q31.795-11.4279 27.8539-15.3748Q23.9128-19.3217 21.6707-24.5483Q19.4288-29.7748 19.4288-35.7555Q19.4288-42.0555 21.8881-47.4937Q24.3474-52.9318 28.6841-56.9332Q33.0209-60.9347 38.6345-62.8933L38.6345-57.6144Q38.6345-54.8718 40.6804-54.1424Q42.7262-53.4131 45.1812-55.2306L60.3813-66.3841Q62.3569-67.8198 62.3254-69.89Q62.2938-71.9602 60.3813-73.3586L45.1927-84.5494Q42.7262-86.3785 40.6804-85.6863Q38.6345-84.9943 38.6345-82.1771L38.6345-75.9942Q31.8217-74.3658 26.0112-70.645Q20.2006-66.9242 15.8979-61.5619Q11.5953-56.1996 9.21562-49.6295Q6.83594-43.0594 6.83594-35.7555Z"/>
  </g>
  <g id="Bold-S" transform="matrix(1 0 0 1 2292.43 696)">
   <path d="M6.83594-35.7167Q6.83594-27.3427 10.022-19.9818Q13.208-12.621 18.8232-6.99356Q24.4385-1.36611 31.7993 1.80771Q39.1602 4.98154 47.5342 4.98154Q55.9326 4.98154 63.2935 1.80771Q70.6543-1.36611 76.2695-6.99356Q81.8848-12.621 85.0708-19.9818Q88.2568-27.3427 88.2568-35.7167Q88.2568-41.4052 86.5601-47.0448Q84.8633-52.6845 81.7993-57.5551Q78.7354-62.4257 74.6582-65.7704Q72.5342-67.6259 70.2881-67.577Q68.042-67.5282 66.5771-65.7948Q64.9658-63.9149 65.393-61.7299Q65.8203-59.5448 67.5293-57.787Q72.1191-53.5634 74.7681-47.9481Q77.417-42.3329 77.4414-35.7167Q77.4414-29.4911 75.1221-24.0712Q72.8027-18.6513 68.7134-14.5497Q64.624-10.4482 59.1919-8.12881Q53.7598-5.80948 47.5342-5.80948Q41.333-5.80948 35.9131-8.12881Q30.4931-10.4482 26.4038-14.5497Q22.3145-18.6513 19.9951-24.0712Q17.6758-29.4911 17.6758-35.7167Q17.6758-42.455 20.3736-48.2411Q23.0713-54.0272 27.8076-58.1898Q32.5439-62.3524 38.6475-64.2079L38.6475-59.0321Q38.6475-56.4442 40.4419-55.7728Q42.2364-55.1015 44.4336-56.7128L58.667-67.0155Q60.4492-68.3095 60.437-70.1283Q60.4248-71.9471 58.667-73.2167L44.458-83.5438Q42.2364-85.1796 40.4419-84.5326Q38.6475-83.8856 38.6475-81.2489L38.6475-75.414Q31.8604-73.8759 26.0498-70.226Q20.2393-66.576 15.9301-61.2782Q11.6211-55.9804 9.22852-49.4618Q6.83594-42.9433 6.83594-35.7167Z"/>
  </g>
  <g id="Semibold-S" transform="matrix(1 0 0 1 1996.19 696)">
   <path d="M6.83594-35.6899Q6.83594-27.4315 9.99086-20.1551Q13.1458-12.8787 18.6988-7.30894Q24.2519-1.73927 31.5283 1.39901Q38.8047 4.53729 47.0632 4.53729Q55.355 4.53729 62.6314 1.39901Q69.9078-1.73927 75.4609-7.30894Q81.0139-12.8787 84.1688-20.1551Q87.3238-27.4315 87.3238-35.6899Q87.3238-41.6184 85.5247-47.3202Q83.7258-53.0221 80.4796-57.906Q77.2335-62.79 72.8986-66.2502Q71.0323-67.8391 69.0262-67.7103Q67.02-67.5815 65.7862-65.9814Q64.4593-64.2881 64.8643-62.383Q65.2693-60.4779 66.8361-58.9867Q71.8348-54.7186 74.7637-48.7301Q77.6925-42.7416 77.7258-35.6899Q77.7258-29.2956 75.3531-23.7423Q72.9805-18.1891 68.7889-13.9809Q64.5974-9.77267 59.0275-7.40001Q53.4576-5.02735 47.0632-5.02735Q40.702-5.02735 35.1488-7.40001Q29.5956-9.77267 25.404-13.9809Q21.2125-18.1891 18.8398-23.7423Q16.4672-29.2956 16.4672-35.6899Q16.4672-42.7304 19.3294-48.7565Q22.1915-54.7825 27.2034-59.0562Q32.2151-63.3299 38.6563-65.1143L38.6563-60.0095Q38.6563-57.5283 40.2775-56.8969Q41.8986-56.2656 43.9182-57.7347L57.4851-67.4509Q59.134-68.6471 59.1351-70.2926Q59.1362-71.9382 57.4851-73.1189L43.9515-82.8506Q41.8986-84.353 40.2775-83.7372Q38.6563-83.1213 38.6563-80.609L38.6563-75.014Q31.887-73.5381 26.0764-69.9371Q20.2659-66.336 15.9524-61.0827Q11.6389-55.8292 9.2374-49.3462Q6.83594-42.8632 6.83594-35.6899Z"/>
  </g>
  <g id="Medium-S" transform="matrix(1 0 0 1 1699.83 696)">
   <path d="M6.83594-35.6697Q6.83594-27.4988 9.96728-20.2864Q13.0986-13.074 18.6044-7.54809Q24.1104-2.02221 31.3228 1.08912Q38.5352 4.20045 46.706 4.20045Q54.917 4.20045 62.1294 1.08912Q69.3418-2.02221 74.8477-7.54809Q80.3535-13.074 83.4849-20.2864Q86.6162-27.4988 86.6162-35.6697Q86.6162-41.7801 84.7397-47.529Q82.8633-53.2781 79.479-58.1721Q76.0947-63.0662 71.5644-66.614Q69.8936-68.0008 68.0693-67.8113Q66.2451-67.6219 65.1865-66.1228Q64.0752-64.5711 64.4634-62.8782Q64.8515-61.1853 66.3105-59.8963Q71.6191-55.5945 74.7603-49.323Q77.9014-43.0515 77.9414-35.6697Q77.9414-29.1473 75.5283-23.4929Q73.1152-17.8386 68.8462-13.5496Q64.5772-9.26049 58.9028-6.8474Q53.2285-4.43432 46.706-4.43432Q40.2236-4.43432 34.5694-6.8474Q28.915-9.26049 24.646-13.5496Q20.3769-17.8386 17.9639-23.4929Q15.5508-29.1473 15.5508-35.6697Q15.5508-42.9392 18.5376-49.1472Q21.5244-55.3552 26.7452-59.7132Q31.9658-64.071 38.6631-65.8015L38.6631-60.7507Q38.6631-58.3503 40.1528-57.7493Q41.6426-57.1482 43.5274-58.5095L56.5889-67.781Q58.1367-68.9031 58.148-70.4172Q58.1592-71.9314 56.5889-73.0447L43.5674-82.3249Q41.6426-83.7263 40.1528-83.134Q38.6631-82.5418 38.6631-80.1238L38.6631-74.7107Q31.9072-73.282 26.0966-69.718Q20.2861-66.154 15.9692-60.9344Q11.6523-55.7146 9.24414-49.2586Q6.83594-42.8025 6.83594-35.6697Z"/>
  </g>
  <g id="Regular-S" transform="matrix(1 0 0 1 1403.58 696)">
   <path d="M6.83594-35.6432Q6.83594-27.5866 9.93652-20.4577Q13.0371-13.3288 18.4814-7.86001Q23.9258-2.39126 31.0547 0.684911Q38.1836 3.76108 46.2402 3.76108Q54.3457 3.76108 61.4746 0.684911Q68.6035-2.39126 74.0479-7.86001Q79.4922-13.3288 82.5928-20.4577Q85.6934-27.5866 85.6934-35.6432Q85.6934-41.9909 83.7158-47.8014Q81.7383-53.612 78.1738-58.5192Q74.6094-63.4264 69.8242-67.0885Q68.4082-68.2116 66.8213-67.943Q65.2344-67.6745 64.4043-66.3073Q63.5742-64.9401 63.9404-63.5241Q64.3066-62.1081 65.625-61.0827Q71.3379-56.737 74.7559-50.0963Q78.1738-43.4557 78.2227-35.6432Q78.2227-28.9538 75.7568-23.1676Q73.291-17.3815 68.9209-12.987Q64.5508-8.59243 58.7402-6.12661Q52.9297-3.66079 46.2402-3.66079Q39.5996-3.66079 33.8135-6.12661Q28.0273-8.59243 23.6572-12.987Q19.2871-17.3815 16.8213-23.1676Q14.3555-28.9538 14.3555-35.6432Q14.3555-43.2116 17.5049-49.6569Q20.6543-56.1022 26.1475-60.57Q31.6406-65.0377 38.6719-66.6979L38.6719-61.7174Q38.6719-59.4225 39.9902-58.861Q41.3086-58.2995 43.0176-59.5202L55.4199-68.2116Q56.8359-69.237 56.8604-70.5797Q56.8848-71.9225 55.4199-72.9479L43.0664-81.6393Q41.3086-82.9088 39.9902-82.3473Q38.6719-81.7858 38.6719-79.4909L38.6719-74.3151Q31.9336-72.9479 26.123-69.4323Q20.3125-65.9166 15.9912-60.7409Q11.6699-55.5651 9.25293-49.1442Q6.83594-42.7233 6.83594-35.6432Z"/>
  </g>
  <g id="Light-S" transform="matrix(1 0 0 1 1107.6 696)">
   <path d="M6.83594-35.5494Q6.83594-27.6138 9.86837-20.6136Q12.9008-13.6134 18.2392-8.25815Q23.5776-2.90295 30.5779 0.112696Q37.5781 3.12834 45.5136 3.12834Q53.4828 3.12834 60.4755 0.112696Q67.4683-2.90295 72.8142-8.25815Q78.1601-13.6134 81.1927-20.6136Q84.2252-27.6138 84.2252-35.5494Q84.2252-42.0636 82.1265-47.9724Q80.0278-53.8813 76.259-58.7885Q72.4902-63.6957 67.4629-67.2218Q66.3648-68.0722 65.1563-67.8567Q63.9478-67.6412 63.3146-66.6069Q62.6963-65.5426 62.9792-64.452Q63.2621-63.3614 64.2779-62.5933Q70.7021-58.1718 74.5818-51.0771Q78.4614-43.9824 78.4951-35.5494Q78.4951-28.6784 75.946-22.703Q73.3971-16.7277 68.8831-12.1968Q64.3692-7.66598 58.3769-5.117Q52.3847-2.56802 45.5136-2.56802Q38.6762-2.56802 32.7009-5.117Q26.7255-7.66598 22.2116-12.1968Q17.6976-16.7277 15.141-22.703Q12.5845-28.6784 12.5845-35.5494Q12.5845-43.4507 15.9382-50.1685Q19.2919-56.8863 25.1107-61.4979Q30.9293-66.1094 38.339-67.7241L38.339-61.8204Q38.339-59.9645 39.4226-59.4862Q40.5062-59.008 41.9429-60.0469L54.0123-68.4809Q55.2162-69.355 55.2332-70.4631Q55.2501-71.5713 54.0123-72.4301L41.9767-80.8794Q40.5062-81.9371 39.4226-81.4664Q38.339-80.9957 38.339-79.1397L38.339-73.5552Q31.6612-72.2638 25.9187-68.8239Q20.1762-65.3838 15.8928-60.2989Q11.6094-55.2139 9.22267-48.8838Q6.83594-42.5537 6.83594-35.5494Z"/>
  </g>
  <g id="Thin-S" transform="matrix(1 0 0 1 811.863 696)">
   <path d="M6.83594-35.4253Q6.83594-27.6498 9.77823-20.8198Q12.7205-13.9897 17.9188-8.78472Q23.1172-3.5797 29.9472-0.644106Q36.7772 2.29149 44.5527 2.29149Q52.3415 2.29149 59.1542-0.644106Q65.9668-3.5797 71.1825-8.78472Q76.3983-13.9897 79.3409-20.8198Q82.2835-27.6498 82.2835-35.4253Q82.2835-42.1598 80.0244-48.1986Q77.7655-54.2375 73.7264-59.1448Q69.6874-64.052 64.3399-67.398Q63.6622-67.8879 62.9542-67.7425Q62.2462-67.5971 61.8733-67.0031Q61.5353-66.3394 61.708-65.6792Q61.8807-65.0189 62.4963-64.5913Q69.8612-60.0695 74.3515-52.3742Q78.8419-44.679 78.8553-35.4253Q78.8553-28.3141 76.1963-22.0885Q73.5373-15.8629 68.8332-11.1518Q64.129-6.44067 57.8965-3.78171Q51.6639-1.12274 44.5527-1.12274Q37.4549-1.12274 31.2293-3.78171Q25.0038-6.44067 20.2996-11.1518Q15.5954-15.8629 12.9187-22.0885Q10.2421-28.3141 10.2421-35.4253Q10.2421-43.7669 13.8661-50.8451Q17.4901-57.9233 23.7394-62.7251Q29.9885-67.5268 37.8987-69.0813L37.8987-61.9567Q37.8987-60.6813 38.6719-60.3132Q39.445-59.9451 40.5214-60.7434L52.1506-68.8372Q53.074-69.5111 53.081-70.309Q53.088-71.1068 52.1506-71.7454L40.5354-79.8745Q39.445-80.652 38.6719-80.3013Q37.8987-79.9507 37.8987-78.6752L37.8987-72.5503Q31.301-71.359 25.6484-68.0192Q19.9959-64.6792 15.7627-59.7143Q11.5293-54.7494 9.18264-48.5394Q6.83594-42.3293 6.83594-35.4253Z"/>
  </g>
  <g id="Ultralight-S" transform="matrix(1 0 0 1 515.649 696)">
   <path d="M6.83594-35.3617Q6.83594-27.6682 9.73206-20.9254Q12.6282-14.1825 17.7547-9.05443Q22.8813-3.92633 29.6242-1.03174Q36.367 1.86285 44.0605 1.86285Q51.757 1.86285 58.4774-1.03174Q65.1978-3.92633 70.3468-9.05443Q75.4959-14.1825 78.3924-20.9254Q81.2889-27.6682 81.2889-35.3617Q81.2889-42.2091 78.9478-48.3145Q76.6068-54.4199 72.4293-59.3272Q68.2518-64.2344 62.7403-67.4883Q62.278-67.7935 61.8263-67.684Q61.3747-67.5745 61.1351-67.206Q60.9406-66.7475 61.0569-66.3077Q61.1732-65.8679 61.5837-65.6146Q69.4305-61.0415 74.2336-53.0386Q79.0367-45.0358 79.0398-35.3617Q79.0398-28.1275 76.3245-21.7738Q73.6092-15.42 68.8076-10.6165Q64.006-5.81308 57.6504-3.09778Q51.2947-0.382474 44.0605-0.382474Q36.8294-0.382474 30.4756-3.09778Q24.1219-5.81308 19.3203-10.6165Q14.5187-15.42 11.7805-21.7738Q9.04236-28.1275 9.04236-35.3617Q9.04236-43.9288 12.8048-51.1916Q16.5672-58.4544 23.037-63.3536Q29.5067-68.2528 37.6732-69.7764L37.6732-62.0265Q37.6732-61.0484 38.2874-60.7367Q38.9015-60.425 39.7934-61.1002L51.1971-69.0196Q51.9768-69.591 51.9787-70.23Q51.9806-70.8689 51.1971-71.3946L39.7972-79.3597Q38.9015-79.9937 38.2874-79.7045Q37.6732-79.4154 37.6732-78.4373L37.6732-72.0355Q31.1165-70.8956 25.51-67.607Q19.9036-64.3183 15.696-59.4149Q11.4883-54.5115 9.16214-48.363Q6.83594-42.2144 6.83594-35.3617Z"/>
  </g>
 </g>
</svg>
